<svg xmlns="http://www.w3.org/2000/svg" xmlns:xlink="http://www.w3.org/1999/xlink" width="203" height="50" viewBox="0 0 203 50"><defs><path id="j9rda" d="M1363.769 589.378a4.573 4.573 0 0 0-4.568 4.567 4.573 4.573 0 0 0 4.568 4.569 4.572 4.572 0 0 0 4.567-4.57 4.572 4.572 0 0 0-4.567-4.566z"/><path id="j9rdb" d="M1416.352 549.643c-3.233 0-6.27.861-8.896 2.361-5.192 2.964-8.785 8.433-9.126 14.76-.018.326-.028.657-.028.99v13.128c-.25 4.317-3.813 7.753-8.171 7.753-4.518 0-8.195-3.693-8.195-8.233l-.003-25.839a4.93 4.93 0 0 0-4.93-4.92 4.927 4.927 0 0 0-4.922 4.92v25.84c0 9.985 8.097 18.11 18.05 18.11a17.89 17.89 0 0 0 8.897-2.362c5.19-2.964 8.784-8.433 9.125-14.758.013-.254.03-.769.03-.769a1.692 1.692 0 0 1 1.689-1.687l12.993-.003c.934 0 1.69.758 1.69 1.692l-.005 12.966a4.93 4.93 0 0 0 4.93 4.921 4.928 4.928 0 0 0 4.923-4.92v-25.84c0-9.986-8.098-18.11-18.051-18.11zm8.208 18.465c0 .935-.758 1.692-1.692 1.692h-13.006a1.692 1.692 0 0 1-1.693-1.692v-.354c0-4.54 3.677-8.234 8.196-8.234 4.518 0 8.195 3.693 8.195 8.234z"/><path id="j9rdc" d="M1347.638 558.782l13.61-.005a4.571 4.571 0 0 0 4.566-4.57 4.57 4.57 0 0 0-4.565-4.565h-19.875a4.568 4.568 0 0 0-4.563 4.564l-.001 24.62a1.69 1.69 0 0 1-2.9 1.184l-10.625-10.624a1.683 1.683 0 0 1-.51-1.208c0-.465.188-.885.492-1.19l9.545-9.552a4.571 4.571 0 0 0-.005-6.459 4.57 4.57 0 0 0-6.454 0l-10.812 10.812c-.308.3-.723.49-1.186.49a1.712 1.712 0 0 1-1.711-1.712v-6.36a4.57 4.57 0 0 0-4.57-4.565 4.57 4.57 0 0 0-4.565 4.564V593.95a4.57 4.57 0 0 0 4.57 4.564 4.569 4.569 0 0 0 4.565-4.564v.001-18.135c0-.943.767-1.71 1.71-1.71.492 0 .932.211 1.245.544l.013-.013 22.53 22.53c.109.11.224.214.344.312.065.054.133.101.202.151.05.037.099.077.152.112.082.055.167.104.252.152.043.026.085.053.129.077.086.046.174.085.262.126.048.022.094.046.142.066.085.035.172.064.258.095.056.018.109.04.165.057.084.026.17.045.255.066.06.014.12.032.182.044.092.018.185.03.279.043.055.007.109.018.165.023.147.015.295.022.442.022l.01.001c.152 0 .302-.008.45-.023.064-.006.124-.018.186-.026.087-.013.174-.023.26-.04.062-.012.12-.03.182-.044.086-.022.172-.04.257-.067.047-.014.09-.032.137-.048.098-.033.196-.067.292-.107l.072-.033a4.56 4.56 0 0 0 1.398-.95 4.553 4.553 0 0 0 1.33-3.293v-13.218a1.69 1.69 0 0 1 1.692-1.692l10.614.001a4.57 4.57 0 0 0 4.564-4.57 4.568 4.568 0 0 0-4.564-4.564l-10.611-.003a1.692 1.692 0 0 1-1.69-1.688l.002-7.68a1.693 1.693 0 0 1 1.686-1.686z"/><path id="j9rdd" d="M1291.07 549.643h-55.779a3.283 3.283 0 0 0-3.273 3.272v42.327a3.283 3.283 0 0 0 3.273 3.272h11.197c-2.998-6.025-5.19-12.69-5.19-19.18 0-11.165 9.796-20.216 21.881-20.216s21.882 9.05 21.882 20.216c0 6.24-2.313 12.988-5.439 19.18h11.447c1.8 0 3.272-1.473 3.272-3.272v-42.327a3.282 3.282 0 0 0-3.272-3.272z"/><path id="j9rde" d="M1254.13 572.363a4.572 4.572 0 0 0-4.566 4.567 4.572 4.572 0 0 0 4.567 4.568 4.572 4.572 0 0 0 4.567-4.568 4.572 4.572 0 0 0-4.567-4.567z"/><path id="j9rdf" d="M1272.155 572.363a4.572 4.572 0 0 0-4.567 4.567 4.572 4.572 0 0 0 4.567 4.568 4.572 4.572 0 0 0 4.567-4.568 4.572 4.572 0 0 0-4.567-4.567z"/><path id="j9rdg" d="M1260.315 581.697c0 2.453 1.043 4.774 2.902 6.843l.003.003c1.862-2.07 2.905-4.392 2.905-6.846 0-2.45-1.047-4.77-2.906-6.837-1.857 2.067-2.904 4.386-2.904 6.837z"/><path id="j9rdh" d="M1277.576 568.467l-.004-.001c-2.717-2.858-8.14-6.064-14.392-6.064-6.25 0-11.678 3.205-14.396 6.06 6.371.402 11.764 2.905 14.436 6.399 2.662-3.48 8.02-5.976 14.356-6.394z"/></defs><g><g transform="translate(-1232 -549)"><use fill="#E60000" xlink:href="#j9rda"/></g><g transform="translate(-1232 -549)"><use fill="#E60000" xlink:href="#j9rdb"/></g><g transform="translate(-1232 -549)"><use fill="#E60000" xlink:href="#j9rdc"/></g><g transform="translate(-1232 -549)"><use fill="#E60000" xlink:href="#j9rdd"/></g><g transform="translate(-1232 -549)"><use fill="#E60000" xlink:href="#j9rde"/></g><g transform="translate(-1232 -549)"><use fill="#E60000" xlink:href="#j9rdf"/></g><g transform="translate(-1232 -549)"><use fill="#E60000" xlink:href="#j9rdg"/></g><g transform="translate(-1232 -549)"><use fill="#E60000" xlink:href="#j9rdh"/></g></g></svg>