<svg xmlns="http://www.w3.org/2000/svg" viewBox="0 0 215.08 46.46"><defs><style>.cls-1{fill:#fbb03b;}</style></defs><title>logo_black</title><g id="Layer_2" data-name="Layer 2"><g id="Layer_1-2" data-name="Layer 1"><path id="_Path_" data-name="&lt;Path&gt;" class="cls-1" d="M53.47,3H77.94a3.26,3.26,0,1,1,0,6.52H29A3.26,3.26,0,0,1,29,3H53.47Z"/><path id="_Path_2" data-name="&lt;Path&gt;" class="cls-1" d="M42.08,15.32H66.55a3.26,3.26,0,0,1,0,6.52H17.61a3.26,3.26,0,0,1,0-6.52H42.08Z"/><path id="_Path_3" data-name="&lt;Path&gt;" class="cls-1" d="M27.73,27.63H52.19a3.26,3.26,0,1,1,0,6.52H3.26a3.26,3.26,0,0,1,0-6.52H27.73Z"/><path id="_Path_4" data-name="&lt;Path&gt;" class="cls-1" d="M33.25,46.46a3.26,3.26,0,0,1,0-6.52H60.44a3.26,3.26,0,0,1,0,6.52H36"/><path id="_Path_5" data-name="&lt;Path&gt;" d="M83.22,30.53a3.17,3.17,0,0,1,3.92.92,5.13,5.13,0,0,0,4.35,2.23c1.69,0,3.32-.27,3.54-1.58.22-1.09-.38-1.41-2.12-2.07l-2.78-1c-7.13-2.56-6.42-6.15-6-8.49.65-3.75,5.82-7.24,11.16-7.24,3.65,0,7.24,1.14,8.43,4.19a3,3,0,0,1-1.41,3.86,3.75,3.75,0,0,1-4.68-.6,4.35,4.35,0,0,0-2.88-1.14c-1.63,0-2.88.54-3,1.52-.11.82.44,1.31,1.85,1.8l3.65,1.31c5.77,2,5.88,6,5.55,7.62-1,5.39-7.07,7.94-12.41,7.94-4.08,0-8.54-1.69-9.2-5.44a3.58,3.58,0,0,1,2.07-3.81"/><path id="_Path_6" data-name="&lt;Path&gt;" d="M132.52,28.95l6.31-13.06a4.22,4.22,0,0,1,5.12-2.18c1.74.49,2.39,2.78,1.52,4.52l-9.74,18.34a5.15,5.15,0,0,1-4.52,2.94h-.33a3.07,3.07,0,0,1-3.26-2.94l-1.74-13.49-6.37,13.49a4.86,4.86,0,0,1-4.35,2.94h-.33a3.32,3.32,0,0,1-3.43-2.94l-3.32-18.34A4.1,4.1,0,0,1,111,13.71c2.56-.65,4.24.49,4.46,2.18l1.63,13.06,5.82-12.35a4.7,4.7,0,0,1,4.41-3h.44a3,3,0,0,1,3.27,3Z"/><path id="_Path_7" data-name="&lt;Path&gt;" d="M154.5,36.13A4.59,4.59,0,0,1,150,39.51a3,3,0,0,1-3.16-3.37l3.37-19.21a4.68,4.68,0,0,1,4.41-3.37c2.07,0,3.59,1.47,3.21,3.37Z"/><path id="_Path_8" data-name="&lt;Path&gt;" d="M157.11,0a3.63,3.63,0,0,1,3.81,4.41,5.59,5.59,0,0,1-5.39,4.46,3.78,3.78,0,0,1-4-4.46A5.72,5.72,0,0,1,157.11,0"/><path id="_Path_9" data-name="&lt;Path&gt;" d="M171.2,32.27h9.2A2.83,2.83,0,0,1,183,35.75a4.2,4.2,0,0,1-3.81,3.48H162.66a2.85,2.85,0,0,1-3-3.27,6.52,6.52,0,0,1,2.23-3.81l12.52-11.37H166a2.86,2.86,0,0,1-2.67-3.48,4.31,4.31,0,0,1,3.86-3.48H182.9c1.69,0,3.48,1.14,2.88,3.43a7.38,7.38,0,0,1-2.07,3.65Z"/><path id="_Compound_Path_" data-name="&lt;Compound Path&gt;" d="M188.13,26.45A15.82,15.82,0,0,1,203.8,13.33c7.4,0,12.46,5.11,11,13.11a16,16,0,0,1-15.67,13.28c-7.4,0-12.46-5.28-11-13.28m19.1,0c.6-3.43-1.52-5.77-4.68-5.77a7.05,7.05,0,0,0-6.8,5.77c-.6,3.48,1.52,5.93,4.63,5.93a7.16,7.16,0,0,0,6.86-5.93"/></g></g></svg>