<?xml version="1.0" encoding="UTF-8" standalone="no"?>
<svg
   xmlns:dc="http://purl.org/dc/elements/1.1/"
   xmlns:cc="http://creativecommons.org/ns#"
   xmlns:rdf="http://www.w3.org/1999/02/22-rdf-syntax-ns#"
   xmlns:svg="http://www.w3.org/2000/svg"
   xmlns="http://www.w3.org/2000/svg"
   viewBox="0 0 266.66666 38.666668"
   height="38.666668"
   width="266.66666"
   xml:space="preserve"
   id="svg2"
   version="1.1"><metadata
     id="metadata8"><rdf:RDF><cc:Work
         rdf:about=""><dc:format>image/svg+xml</dc:format><dc:type
           rdf:resource="http://purl.org/dc/dcmitype/StillImage" /></cc:Work></rdf:RDF></metadata><defs
     id="defs6"><clipPath
       id="clipPath18"
       clipPathUnits="userSpaceOnUse"><path
         id="path16"
         d="M 0,29 H 200 V 0 H 0 Z" /></clipPath><linearGradient
       id="linearGradient46"
       spreadMethod="pad"
       gradientTransform="matrix(10.045386,19.771551,-19.715208,10.074113,31.041124,2.666513)"
       gradientUnits="userSpaceOnUse"
       y2="0"
       x2="1"
       y1="0"
       x1="0"><stop
         id="stop36"
         offset="0"
         style="stop-opacity:1;stop-color:#38b24a" /><stop
         id="stop38"
         offset="0.270961"
         style="stop-opacity:1;stop-color:#009245" /><stop
         id="stop40"
         offset="0.635231"
         style="stop-opacity:1;stop-color:#38b24a" /><stop
         id="stop42"
         offset="0.81109448"
         style="stop-opacity:1;stop-color:#38b24a" /><stop
         id="stop44"
         offset="1"
         style="stop-opacity:1;stop-color:#009245" /></linearGradient><clipPath
       id="clipPath56"
       clipPathUnits="userSpaceOnUse"><path
         id="path54"
         d="M 0,29 H 200 V 0 H 0 Z" /></clipPath><linearGradient
       id="linearGradient86"
       spreadMethod="pad"
       gradientTransform="matrix(11.131062,10.159,-20.393944,13.366398,17.183735,11.694928)"
       gradientUnits="userSpaceOnUse"
       y2="0"
       x2="1"
       y1="0"
       x1="0"><stop
         id="stop78"
         offset="0"
         style="stop-opacity:1;stop-color:#f7a41a" /><stop
         id="stop80"
         offset="0.444689"
         style="stop-opacity:1;stop-color:#f38120" /><stop
         id="stop82"
         offset="0.791852"
         style="stop-opacity:1;stop-color:#f7a41a" /><stop
         id="stop84"
         offset="1"
         style="stop-opacity:1;stop-color:#f38120" /></linearGradient><clipPath
       id="clipPath96"
       clipPathUnits="userSpaceOnUse"><path
         id="path94"
         d="M 0,29 H 200 V 0 H 0 Z" /></clipPath></defs><g
     transform="matrix(1.3333333,0,0,-1.3333333,0,38.666667)"
     id="g10"><g
       id="g12"><g
         clip-path="url(#clipPath18)"
         id="g14"><g
           transform="translate(50.8027,15.8188)"
           id="g20"><path
             id="path22"
             style="fill:#007b38;fill-opacity:1;fill-rule:nonzero;stroke:none"
             d="m 0,0 c -2.714,-0.033 -5.329,-1.081 -7.767,-2.44 -2.368,-1.324 -4.365,-3.49 -6.844,-4.549 -4.019,-1.719 -5.485,-1.577 -9.544,-1.116 -0.707,0.078 -2.386,0.494 -3.095,0.46 -0.364,-0.02 -3.464,0.643 -3.714,0.82 5.737,-4.038 5.496,-3.97 11.233,-8.008 C -9.91,-12.108 -9.263,-2.75 0,0" /></g></g></g><g
       id="g24"><g
         id="g26"><g
           id="g32"><g
             id="g34"><path
               id="path48"
               style="fill:url(#linearGradient46);stroke:none"
               d="M 19.839,8.994 C 25.575,4.956 25.451,5.837 31.188,1.799 v 0 c 9.264,2.756 10.352,11.269 19.614,14.019 v 0 c -1.992,0.573 -2.264,0.906 -3.275,1.721 v 0 c -1.53,1.237 -3.13,2.733 -5.065,2.835 v 0 c -0.06,0.003 -0.12,0.005 -0.179,0.005 v 0 C 37.265,20.38 31.83,9.264 19.839,8.994" /></g></g></g></g><g
       id="g50"><g
         clip-path="url(#clipPath56)"
         id="g52"><g
           transform="translate(19.8384,8.9941)"
           id="g58"><path
             id="path60"
             style="fill:#71bd44;fill-opacity:1;fill-rule:nonzero;stroke:none"
             d="m 0,0 11.349,-7.195 c 0,0 3.939,-0.48 10.365,7.649 0,0 -5.109,-6.31 -10.056,-7.166 z" /></g><g
           transform="translate(39.7778,13.6562)"
           id="g62"><path
             id="path64"
             style="fill:#f4911e;fill-opacity:1;fill-rule:nonzero;stroke:none"
             d="m 0,0 c -3.063,1.117 -6.039,1.454 -8.821,1.481 -2.707,0.03 -5.013,-0.716 -7.836,-0.448 -4.574,0.434 -6.226,1.155 -10.79,3.203 -0.794,0.355 -2.676,1.367 -3.476,1.637 -0.411,0.144 -4.52,1.877 -4.798,2.112 6.366,-5.374 6.724,-5.166 13.087,-10.542 C -11.491,-4.692 -10.939,1.069 0,0" /></g></g></g><g
       id="g66"><g
         id="g68"><g
           id="g74"><g
             id="g76"><path
               id="path88"
               style="fill:url(#linearGradient86);stroke:none"
               d="m 4.308,21.552 v -0.123 c 6.13,-5.143 6.71,-4.48 12.99,-9.78 v 0 c 5.258,-0.941 8.248,0.032 11.238,1.004 v 0 c 2.99,0.972 5.981,1.945 11.24,1.004 v 0 c -2.231,1.257 -5.517,4.634 -7.695,5.524 v 0 c -2.418,0.988 -5.358,0.701 -8.983,0.413 v 0 C 18.212,19.206 12.082,18.817 4.309,21.552 v 0 z" /></g></g></g></g><g
       id="g90"><g
         clip-path="url(#clipPath96)"
         id="g92"><g
           transform="translate(4.2896,21.5664)"
           id="g98"><path
             id="path100"
             style="fill:#f7a41a;fill-opacity:1;fill-rule:nonzero;stroke:none"
             d="m 0,0 c 5.797,-4.843 6.938,-4.397 13.099,-9.596 10.515,-1.883 11.647,3.677 22.167,1.791 -0.01,0.005 -0.021,0.014 -0.029,0.019 0.074,-0.035 0.147,-0.072 0.222,-0.105 0.007,-0.005 0.02,-0.013 0.028,-0.019 C 24.969,-6.026 23.524,-11.801 13.009,-9.918 6.644,-4.545 6.133,-5.298 -0.232,0.075 -0.152,0.047 -0.081,0.028 0,0" /></g><g
           transform="translate(187.126,8.6035)"
           id="g102"><path
             id="path104"
             style="fill:#38b24a;fill-opacity:1;fill-rule:nonzero;stroke:none"
             d="M 0,0 H 2.954 L 2.766,2.101 2.473,5.98 H 2.256 L 0.806,2.02 Z M 3.465,-3.988 H -1.667 L -2.956,-7.087 C -3.063,-7.284 -3.166,-7.434 -3.264,-7.531 -3.363,-7.63 -3.565,-7.68 -3.868,-7.68 H -7.79 c -0.162,0 -0.262,0.05 -0.296,0.149 -0.037,0.097 -0.027,0.219 0.025,0.363 l 7.47,16.679 c 0.323,0.717 0.667,1.179 1.033,1.387 0.368,0.206 0.838,0.31 1.412,0.31 h 2.123 c 0.303,0 0.571,-0.014 0.804,-0.041 C 5.016,11.139 5.216,11.072 5.386,10.965 5.557,10.857 5.699,10.69 5.816,10.468 5.934,10.242 6.019,9.933 6.07,9.537 L 8.864,-7.168 C 8.883,-7.258 8.875,-7.364 8.839,-7.49 8.803,-7.617 8.687,-7.68 8.489,-7.68 H 4.621 c -0.197,0 -0.362,0.027 -0.497,0.081 -0.136,0.054 -0.219,0.179 -0.255,0.378 z m -15.583,6.332 c 0.43,-0.199 0.78,-0.41 1.05,-0.633 0.269,-0.226 0.48,-0.468 0.63,-0.729 0.151,-0.26 0.259,-0.543 0.324,-0.848 0.061,-0.306 0.12,-0.647 0.175,-1.024 l 0.966,-6.251 C -8.956,-7.23 -8.964,-7.343 -9,-7.478 -9.036,-7.612 -9.17,-7.68 -9.404,-7.68 h -4.111 c -0.089,0 -0.186,0.018 -0.295,0.054 -0.107,0.035 -0.178,0.144 -0.214,0.323 l -0.725,5.362 c -0.072,0.486 -0.18,0.884 -0.322,1.199 -0.144,0.314 -0.333,0.561 -0.565,0.742 -0.233,0.179 -0.52,0.3 -0.86,0.363 -0.341,0.063 -0.734,0.095 -1.182,0.095 h -1.21 l -1.047,-7.706 c -0.037,-0.198 -0.089,-0.32 -0.161,-0.364 -0.072,-0.045 -0.189,-0.068 -0.35,-0.068 h -4.084 c -0.143,0 -0.253,0.023 -0.334,0.068 -0.08,0.044 -0.106,0.166 -0.069,0.364 l 2.527,17.997 c 0.036,0.198 0.094,0.319 0.176,0.365 0.079,0.044 0.19,0.067 0.334,0.067 h 4.111 c 0.16,0 0.272,-0.023 0.335,-0.067 0.062,-0.046 0.067,-0.167 0.013,-0.365 l -0.941,-6.681 h 1.559 c 0.216,0 0.43,0.022 0.646,0.067 0.214,0.045 0.43,0.147 0.645,0.31 0.214,0.162 0.425,0.391 0.63,0.687 0.207,0.297 0.409,0.687 0.606,1.173 l 1.854,4.552 c 0.072,0.18 0.16,0.287 0.268,0.324 0.107,0.035 0.205,0.053 0.294,0.053 h 4.139 c 0.214,0 0.325,-0.067 0.337,-0.201 0.006,-0.135 -0.005,-0.247 -0.041,-0.338 L -9.377,5.873 C -9.663,5.118 -10.043,4.449 -10.519,3.865 -10.993,3.282 -11.526,2.819 -12.118,2.479 Z m -15.809,-9.903 c -0.063,-0.08 -0.238,-0.121 -0.524,-0.121 h -3.708 c -0.411,0 -0.59,0.19 -0.537,0.567 l 0.779,5.468 c -0.556,-0.053 -1.075,-0.099 -1.558,-0.133 -0.485,-0.037 -0.941,-0.054 -1.371,-0.054 -1.451,0 -2.614,0.178 -3.492,0.537 -0.879,0.36 -1.535,0.859 -1.974,1.496 -0.44,0.637 -0.705,1.392 -0.794,2.264 -0.089,0.871 -0.062,1.817 0.082,2.842 l 0.752,5.308 c 0.037,0.197 0.098,0.341 0.188,0.431 0.09,0.09 0.25,0.135 0.483,0.135 h 3.707 c 0.287,0 0.457,-0.042 0.511,-0.122 0.054,-0.08 0.062,-0.229 0.028,-0.444 l -0.672,-4.822 c -0.09,-0.576 -0.113,-1.062 -0.068,-1.455 0.045,-0.396 0.17,-0.715 0.376,-0.957 0.207,-0.243 0.498,-0.417 0.873,-0.526 0.377,-0.108 0.851,-0.162 1.425,-0.162 0.304,0 0.634,0.014 0.994,0.041 0.358,0.028 0.742,0.077 1.156,0.148 l 1.074,7.733 c 0.053,0.377 0.277,0.566 0.672,0.566 h 3.708 c 0.285,0 0.456,-0.042 0.508,-0.122 0.055,-0.08 0.063,-0.229 0.028,-0.444 l -2.498,-17.728 c -0.037,-0.215 -0.085,-0.365 -0.148,-0.446 m -22.689,14.51 c -0.645,0 -1.208,-0.208 -1.692,-0.621 -0.483,-0.413 -0.886,-0.955 -1.21,-1.629 -0.321,-0.675 -0.564,-1.429 -0.724,-2.263 -0.162,-0.835 -0.243,-1.684 -0.243,-2.545 0,-1.042 0.193,-1.857 0.578,-2.441 0.386,-0.583 1.044,-0.875 1.975,-0.875 0.663,0 1.232,0.201 1.706,0.607 0.474,0.404 0.868,0.938 1.181,1.602 0.314,0.665 0.542,1.406 0.686,2.225 0.144,0.815 0.215,1.646 0.215,2.491 0,0.502 -0.04,0.966 -0.121,1.388 -0.081,0.422 -0.214,0.784 -0.402,1.09 -0.188,0.306 -0.44,0.544 -0.753,0.715 -0.313,0.17 -0.713,0.256 -1.196,0.256 m 0.457,4.526 c 1.235,0 2.306,-0.185 3.211,-0.552 0.904,-0.369 1.653,-0.885 2.244,-1.55 0.591,-0.664 1.034,-1.468 1.328,-2.412 0.297,-0.942 0.444,-1.988 0.444,-3.138 0,-1.744 -0.202,-3.338 -0.604,-4.783 -0.404,-1.445 -1.008,-2.689 -1.814,-3.73 -0.806,-1.043 -1.809,-1.851 -3.009,-2.425 -1.2,-0.575 -2.588,-0.863 -4.164,-0.863 -1.253,0 -2.329,0.171 -3.224,0.511 -0.896,0.342 -1.636,0.841 -2.217,1.497 -0.581,0.655 -1.012,1.458 -1.289,2.411 -0.277,0.952 -0.416,2.029 -0.416,3.233 0,1.761 0.219,3.368 0.658,4.822 0.439,1.455 1.071,2.699 1.894,3.732 0.823,1.033 1.823,1.833 2.996,2.398 1.173,0.566 2.493,0.849 3.962,0.849 M -70.926,4.229 h 2.739 c 0.179,0 0.363,0.023 0.551,0.068 0.19,0.044 0.364,0.131 0.525,0.256 0.16,0.126 0.29,0.287 0.388,0.484 0.1,0.198 0.149,0.45 0.149,0.756 0,0.322 -0.103,0.573 -0.31,0.753 -0.206,0.18 -0.487,0.27 -0.845,0.27 h -2.848 z m -1.075,-7.517 h 3.09 c 0.394,0 0.724,0.073 0.994,0.217 0.268,0.141 0.483,0.318 0.645,0.523 0.161,0.207 0.271,0.432 0.335,0.675 0.063,0.242 0.094,0.462 0.094,0.659 0,0.432 -0.13,0.782 -0.389,1.052 -0.26,0.269 -0.65,0.403 -1.169,0.403 h -3.089 z m 5.291,14.469 c 0.717,0 1.398,-0.073 2.044,-0.216 0.645,-0.144 1.208,-0.381 1.691,-0.714 0.484,-0.333 0.865,-0.764 1.143,-1.293 0.277,-0.53 0.416,-1.181 0.416,-1.954 0,-1.096 -0.241,-1.976 -0.726,-2.64 -0.482,-0.666 -1.065,-1.195 -1.746,-1.59 l -0.026,-0.162 c 0.806,-0.378 1.36,-0.92 1.665,-1.63 0.305,-0.71 0.456,-1.45 0.456,-2.222 0,-0.899 -0.179,-1.739 -0.537,-2.52 -0.358,-0.781 -0.859,-1.459 -1.504,-2.034 -0.645,-0.575 -1.41,-1.033 -2.297,-1.374 -0.887,-0.341 -1.85,-0.512 -2.889,-0.512 h -6.767 c -0.737,0 -1.184,0.14 -1.345,0.418 -0.162,0.278 -0.197,0.731 -0.107,1.361 l 2.149,15.303 c 0.089,0.593 0.25,1.037 0.483,1.334 0.234,0.297 0.715,0.445 1.451,0.445 z m -14.088,-18.74 c -0.064,-0.08 -0.247,-0.121 -0.552,-0.121 h -3.681 c -0.43,0 -0.617,0.19 -0.563,0.567 l 2.497,17.728 c 0.054,0.377 0.288,0.566 0.7,0.566 h 3.68 c 0.305,0 0.484,-0.042 0.537,-0.122 0.054,-0.08 0.063,-0.229 0.028,-0.444 l -2.5,-17.728 c -0.036,-0.215 -0.084,-0.365 -0.146,-0.446 m -5.414,14.456 h -4.461 l -1.987,-14.01 c -0.035,-0.215 -0.085,-0.365 -0.148,-0.446 -0.063,-0.08 -0.237,-0.121 -0.524,-0.121 h -3.707 c -0.413,0 -0.592,0.19 -0.539,0.567 l 1.99,14.01 h -4.353 c -0.376,0 -0.529,0.206 -0.457,0.62 l 0.43,3.017 c 0.036,0.305 0.097,0.488 0.187,0.552 0.09,0.063 0.234,0.095 0.43,0.095 h 13.729 c 0.216,0 0.359,-0.032 0.431,-0.095 0.071,-0.064 0.089,-0.247 0.053,-0.552 l -0.43,-3.017 c -0.072,-0.414 -0.286,-0.62 -0.644,-0.62 m -23.186,0.054 c -0.644,0 -1.208,-0.208 -1.692,-0.621 -0.484,-0.413 -0.887,-0.955 -1.209,-1.629 -0.322,-0.675 -0.565,-1.429 -0.726,-2.263 -0.161,-0.835 -0.242,-1.684 -0.242,-2.545 0,-1.042 0.192,-1.857 0.579,-2.441 0.384,-0.583 1.042,-0.875 1.974,-0.875 0.662,0 1.231,0.201 1.705,0.607 0.475,0.404 0.869,0.938 1.182,1.602 0.314,0.665 0.543,1.406 0.686,2.225 0.143,0.815 0.215,1.646 0.215,2.491 0,0.502 -0.041,0.966 -0.12,1.388 -0.081,0.422 -0.216,0.784 -0.404,1.09 -0.188,0.306 -0.439,0.544 -0.752,0.715 -0.314,0.17 -0.712,0.256 -1.196,0.256 m 0.457,4.526 c 1.235,0 2.305,-0.185 3.211,-0.552 0.904,-0.369 1.652,-0.885 2.243,-1.55 0.591,-0.664 1.033,-1.468 1.33,-2.412 0.295,-0.942 0.443,-1.988 0.443,-3.138 0,-1.744 -0.202,-3.338 -0.605,-4.783 -0.403,-1.445 -1.008,-2.689 -1.812,-3.73 -0.807,-1.043 -1.81,-1.851 -3.01,-2.425 -1.2,-0.575 -2.588,-0.863 -4.164,-0.863 -1.255,0 -2.329,0.171 -3.224,0.511 -0.896,0.342 -1.635,0.841 -2.217,1.497 -0.583,0.655 -1.012,1.458 -1.29,2.411 -0.277,0.952 -0.416,2.029 -0.416,3.233 0,1.761 0.22,3.368 0.658,4.822 0.439,1.455 1.07,2.699 1.894,3.732 0.824,1.033 1.823,1.833 2.997,2.398 1.173,0.566 2.494,0.849 3.962,0.849 m -19.666,-18.618 c -0.036,-0.214 -0.085,-0.36 -0.147,-0.43 -0.063,-0.072 -0.238,-0.109 -0.524,-0.109 h -3.708 c -0.412,0 -0.591,0.179 -0.537,0.539 l 1.854,13.203 c 0.089,0.646 0.264,1.279 0.523,1.899 0.26,0.62 0.613,1.167 1.062,1.643 0.447,0.477 0.998,0.857 1.652,1.145 0.653,0.288 1.419,0.432 2.297,0.432 h 8.032 c 0.198,0 0.323,-0.032 0.377,-0.095 0.054,-0.064 0.062,-0.247 0.027,-0.552 l -0.43,-3.044 c -0.036,-0.235 -0.094,-0.391 -0.174,-0.473 -0.081,-0.08 -0.211,-0.12 -0.39,-0.12 h -6.368 c -0.339,0 -0.622,-0.05 -0.845,-0.149 -0.225,-0.099 -0.4,-0.22 -0.524,-0.364 -0.127,-0.143 -0.22,-0.305 -0.282,-0.485 -0.063,-0.179 -0.104,-0.36 -0.121,-0.539 z" /></g><g
           transform="translate(59.6055,25.9541)"
           id="g106"><path
             id="path108"
             style="fill:#f38120;fill-opacity:1;fill-rule:nonzero;stroke:none"
             d="M 0,0 H 1.726 C 1.831,0 1.952,0.017 2.092,0.049 2.232,0.082 2.367,0.14 2.497,0.225 2.626,0.31 2.737,0.426 2.829,0.576 2.92,0.725 2.965,0.917 2.965,1.151 2.965,1.385 2.884,1.574 2.721,1.717 2.559,1.86 2.331,1.931 2.039,1.931 H 0.273 Z m -0.107,-0.76 -0.351,-2.517 h 1.775 c 0.312,0 0.567,0.052 0.765,0.156 0.199,0.104 0.356,0.231 0.474,0.38 0.116,0.151 0.196,0.311 0.239,0.484 0.042,0.171 0.062,0.323 0.062,0.453 0,0.312 -0.095,0.564 -0.287,0.756 -0.192,0.192 -0.493,0.288 -0.903,0.288 z m -0.859,-3.336 c -0.169,0 -0.286,0.038 -0.351,0.116 -0.065,0.079 -0.084,0.202 -0.058,0.372 l 0.81,5.852 c 0.032,0.169 0.088,0.294 0.17,0.376 0.082,0.08 0.209,0.121 0.385,0.121 l 2.195,0.01 C 2.432,2.751 2.661,2.722 2.872,2.663 3.084,2.604 3.267,2.515 3.423,2.395 3.58,2.274 3.702,2.118 3.789,1.927 3.876,1.735 3.92,1.505 3.92,1.239 3.92,1.09 3.9,0.938 3.857,0.786 3.815,0.633 3.75,0.486 3.662,0.347 3.574,0.207 3.463,0.078 3.326,-0.039 3.189,-0.156 3.023,-0.25 2.829,-0.322 L 2.819,-0.38 C 3.157,-0.51 3.397,-0.708 3.541,-0.971 3.684,-1.233 3.755,-1.524 3.755,-1.844 3.755,-2.2 3.693,-2.52 3.57,-2.799 3.446,-3.079 3.274,-3.314 3.053,-3.506 2.832,-3.698 2.57,-3.844 2.268,-3.945 1.965,-4.046 1.635,-4.096 1.277,-4.096 Z" /></g><g
           transform="translate(67.5938,26.2568)"
           id="g110"><path
             id="path112"
             style="fill:#f38120;fill-opacity:1;fill-rule:nonzero;stroke:none"
             d="M 0,0 -0.244,1.424 H -0.292 L -0.917,0.049 -1.853,-2.029 h 2.194 z m 0.966,-4.399 c -0.059,0 -0.107,0.006 -0.142,0.019 -0.036,0.014 -0.06,0.055 -0.073,0.127 L 0.487,-2.819 H -2.185 L -2.858,-4.253 C -2.891,-4.305 -2.921,-4.342 -2.95,-4.364 -2.98,-4.387 -3.024,-4.399 -3.082,-4.399 h -0.693 c -0.065,0 -0.102,0.018 -0.112,0.054 -0.009,0.035 -0.008,0.079 0.005,0.131 l 3.033,6.272 c 0.072,0.156 0.142,0.259 0.21,0.307 0.068,0.05 0.177,0.077 0.327,0.083 H -0.04 C 0.129,2.448 0.241,2.42 0.292,2.365 0.345,2.31 0.387,2.208 0.419,2.058 L 1.667,-4.214 C 1.681,-4.259 1.677,-4.301 1.658,-4.34 1.638,-4.38 1.599,-4.399 1.541,-4.399 Z" /></g><g
           transform="translate(78.771,28.5493)"
           id="g114"><path
             id="path116"
             style="fill:#f38120;fill-opacity:1;fill-rule:nonzero;stroke:none"
             d="m 0,0 c -0.006,-0.079 -0.032,-0.272 -0.079,-0.582 -0.045,-0.307 -0.096,-0.673 -0.155,-1.096 -0.058,-0.423 -0.121,-0.876 -0.19,-1.361 -0.069,-0.484 -0.134,-0.938 -0.196,-1.36 -0.061,-0.423 -0.113,-0.789 -0.155,-1.098 -0.042,-0.309 -0.071,-0.502 -0.083,-0.58 -0.026,-0.208 -0.094,-0.362 -0.205,-0.463 -0.11,-0.102 -0.24,-0.151 -0.39,-0.151 h -6.701 c -0.156,0 -0.273,0.049 -0.351,0.151 -0.078,0.101 -0.104,0.255 -0.078,0.463 L -7.725,0 c 0.014,0.064 0.031,0.104 0.055,0.122 0.022,0.016 0.059,0.024 0.111,0.024 h 0.595 c 0.059,0 0.099,-0.008 0.122,-0.024 C -6.819,0.104 -6.814,0.064 -6.827,0 l -0.829,-5.901 h 2.574 L -4.252,0 c 0.013,0.064 0.032,0.104 0.058,0.122 0.026,0.016 0.065,0.024 0.117,0.024 h 0.547 c 0.058,0 0.098,-0.008 0.121,-0.024 C -3.386,0.104 -3.378,0.064 -3.385,0 l -0.838,-5.901 h 2.516 L -0.868,0 c 0.007,0.064 0.024,0.104 0.054,0.122 0.028,0.016 0.069,0.024 0.121,0.024 h 0.567 c 0.051,0 0.088,-0.008 0.111,-0.024 C 0.009,0.104 0.013,0.064 0,0" /></g><g
           transform="translate(82.5942,26.2568)"
           id="g118"><path
             id="path120"
             style="fill:#f38120;fill-opacity:1;fill-rule:nonzero;stroke:none"
             d="M 0,0 -0.244,1.424 H -0.292 L -0.917,0.049 -1.853,-2.029 h 2.195 z m 0.966,-4.399 c -0.058,0 -0.106,0.006 -0.142,0.019 -0.035,0.014 -0.059,0.055 -0.073,0.127 L 0.488,-2.819 H -2.185 L -2.858,-4.253 C -2.89,-4.305 -2.921,-4.342 -2.951,-4.364 -2.979,-4.387 -3.023,-4.399 -3.082,-4.399 h -0.692 c -0.065,0 -0.103,0.018 -0.113,0.054 -0.009,0.035 -0.007,0.079 0.005,0.131 l 3.033,6.272 c 0.072,0.156 0.142,0.259 0.21,0.307 0.069,0.05 0.177,0.077 0.327,0.083 h 0.273 C 0.13,2.448 0.241,2.42 0.292,2.365 0.344,2.31 0.387,2.208 0.419,2.058 L 1.668,-4.214 C 1.681,-4.259 1.678,-4.301 1.659,-4.34 1.639,-4.38 1.6,-4.399 1.541,-4.399 Z" /></g></g></g></g></svg>